# This file uses centimeters as units for non-parametric coordinates.

mtllib Door.mtl
g default
v 0.435709 12.206449 -0.536036
v 0.377335 12.424304 -0.536036
v 0.217855 12.583785 -0.536036
v -0.000000 12.642158 -0.536036
v -0.217855 12.583784 -0.536036
v -0.377336 12.424304 -0.536036
v -0.435709 12.206449 -0.536036
v -0.377336 11.988594 -0.536036
v -0.217855 11.829113 -0.536036
v 0.217855 11.829113 -0.536036
v 0.377336 11.988594 -0.536036
v 0.435709 12.206449 0.536036
v 0.377336 12.424304 0.536036
v 0.217855 12.583784 0.536036
v 0.000000 12.642158 0.536036
v -0.217855 12.583784 0.536036
v -0.377336 12.424304 0.536036
v -0.435709 12.206449 0.536036
v -0.377335 11.988594 0.536036
v -0.217855 11.829113 0.536036
v 0.217855 11.829113 0.536036
v 0.377336 11.988594 0.536036
v 1.401380 12.000000 0.536036
v 1.213631 12.700690 0.536036
v 0.700690 13.213631 0.536036
v -0.000000 13.401381 0.536036
v -0.700690 13.213631 0.536036
v -1.213631 12.700690 0.536036
v -1.401380 12.000000 0.536036
v -1.213631 11.299310 0.536036
v -0.700690 10.786368 0.536036
v 0.000000 10.598619 0.536036
v 0.700690 10.786369 0.536036
v 1.213631 11.299310 0.536036
v 1.401380 12.000000 -0.536036
v 1.213631 12.700689 -0.536036
v 0.700690 13.213631 -0.536036
v 0.000000 13.401381 -0.536036
v -0.700690 13.213631 -0.536036
v -1.213631 12.700690 -0.536036
v -1.401380 12.000000 -0.536036
v -1.213631 11.299310 -0.536036
v -0.700690 10.786369 -0.536036
v 0.000000 10.598619 -0.536036
v 0.700690 10.786369 -0.536036
v 1.213631 11.299310 -0.536036
v -1.183833 11.269512 0.536036
v 1.183832 11.269512 0.536036
v -1.183833 11.269512 -0.536036
v 1.183833 11.269512 -0.536036
v -0.371352 11.393902 0.536036
v -0.000000 11.393902 0.536036
v 0.371352 11.393902 0.536036
v -0.371352 11.393902 -0.536036
v 0.000000 11.393902 -0.536036
v 0.371352 11.393902 -0.536036
v -0.371352 11.393902 0.178679
v -0.217855 11.829113 0.178679
v -0.371352 11.393902 -0.000000
v -0.217855 11.829113 -0.000000
v -0.371352 11.393902 -0.178679
v -0.217855 11.829113 -0.178679
v -0.371352 11.393902 -0.357358
v -0.217855 11.829113 -0.357358
vt 0.000000 1.000000
vt 0.083333 1.000000
vt 0.166667 1.000000
vt 0.250000 1.000000
vt 0.333333 1.000000
vt 0.416667 1.000000
vt 0.500000 1.000000
vt 0.583333 1.000000
vt 0.666667 1.000000
vt 0.833333 0.500000
vt 0.916667 1.000000
vt 1.000000 1.000000
vt 0.000000 0.750000
vt 0.083333 0.750000
vt 0.166667 0.750000
vt 0.250000 0.750000
vt 0.333333 0.750000
vt 0.416667 0.750000
vt 0.500000 0.750000
vt 0.583333 0.750000
vt 0.666667 0.750000
vt 0.833333 0.750000
vt 0.916667 0.750000
vt 1.000000 0.750000
vt 0.000000 0.500000
vt 0.083333 0.500000
vt 0.166667 0.500000
vt 0.250000 0.500000
vt 0.333333 0.500000
vt 0.416667 0.500000
vt 0.500000 0.500000
vt 0.583333 0.500000
vt 0.666667 0.500000
vt 0.750000 0.500000
vt 0.833333 0.500000
vt 0.916667 0.500000
vt 1.000000 0.500000
vt 0.000000 0.250000
vt 0.083333 0.250000
vt 0.166667 0.250000
vt 0.250000 0.250000
vt 0.333333 0.250000
vt 0.416667 0.250000
vt 0.500000 0.250000
vt 0.583333 0.250000
vt 0.666667 0.250000
vt 0.750000 0.250000
vt 0.833333 0.250000
vt 0.916667 0.250000
vt 1.000000 0.250000
vt 0.000000 0.000000
vt 0.083333 0.000000
vt 0.166667 0.000000
vt 0.250000 0.000000
vt 0.333333 0.000000
vt 0.416667 0.000000
vt 0.500000 0.000000
vt 0.583333 0.000000
vt 0.666667 0.000000
vt 0.833333 0.142055
vt 0.916667 0.000000
vt 1.000000 0.000000
vt 0.588174 0.500000
vt 0.911825 0.500000
vt 0.588174 0.250000
vt 0.911826 0.250000
vt 0.666667 0.607945
vt 0.750000 0.637153
vt 0.833333 0.607945
vt 0.666667 0.142055
vt 0.750000 0.112847
vt 0.666667 0.452648
vt 0.666667 0.500000
vt 0.666667 0.375000
vt 0.666667 0.375000
vt 0.666667 0.297352
vt 0.666667 0.250000
vt 0.666667 0.219703
vt 0.666667 0.125000
vn -0.965926 -0.258818 -0.000000
vn -0.965926 -0.258818 -0.000000
vn -0.965926 -0.258818 -0.000000
vn -0.965926 -0.258818 -0.000000
vn -0.707106 -0.707107 -0.000000
vn -0.707106 -0.707107 -0.000000
vn -0.707106 -0.707107 -0.000000
vn -0.707106 -0.707107 -0.000000
vn -0.258815 -0.965927 -0.000000
vn -0.258815 -0.965927 -0.000000
vn -0.258815 -0.965927 -0.000000
vn -0.258815 -0.965927 -0.000000
vn 0.258815 -0.965927 0.000000
vn 0.258815 -0.965927 0.000000
vn 0.258815 -0.965927 0.000000
vn 0.258815 -0.965927 0.000000
vn 0.707106 -0.707108 0.000000
vn 0.707106 -0.707108 0.000000
vn 0.707106 -0.707108 0.000000
vn 0.707106 -0.707108 0.000000
vn 0.965926 -0.258817 -0.000000
vn 0.965926 -0.258817 -0.000000
vn 0.965926 -0.258817 -0.000000
vn 0.965926 -0.258817 -0.000000
vn 0.965926 0.258819 -0.000000
vn 0.965926 0.258819 -0.000000
vn 0.965926 0.258819 -0.000000
vn 0.965926 0.258819 -0.000000
vn 0.707106 0.707107 -0.000000
vn 0.707106 0.707107 -0.000000
vn 0.707106 0.707107 -0.000000
vn 0.707106 0.707107 -0.000000
vn -0.707106 0.707108 0.000000
vn -0.707106 0.707108 0.000000
vn -0.707106 0.707108 0.000000
vn -0.707106 0.707108 0.000000
vn -0.965926 0.258818 -0.000000
vn -0.965926 0.258818 -0.000000
vn -0.965926 0.258818 -0.000000
vn -0.965926 0.258818 -0.000000
vn 0.000000 -0.000000 1.000000
vn 0.000000 -0.000000 1.000000
vn 0.000000 -0.000000 1.000000
vn 0.000000 -0.000000 1.000000
vn 0.000000 -0.000000 1.000000
vn 0.000000 -0.000000 1.000000
vn 0.000000 0.000000 1.000000
vn 0.000000 0.000000 1.000000
vn 0.000000 0.000000 1.000000
vn 0.000000 0.000000 1.000000
vn 0.000000 0.000000 1.000000
vn 0.000000 0.000000 1.000000
vn 0.000000 0.000000 1.000000
vn 0.000000 0.000000 1.000000
vn 0.000000 0.000000 1.000000
vn 0.000000 0.000000 1.000000
vn 0.000000 0.000000 1.000000
vn 0.000000 0.000000 1.000000
vn 0.000000 0.000000 1.000000
vn 0.000000 0.000000 1.000000
vn 0.000000 0.000000 1.000000
vn 0.000000 -0.000000 1.000000
vn 0.000000 -0.000000 1.000000
vn 0.000000 0.000000 1.000000
vn 0.965926 0.258819 -0.000000
vn 0.965926 0.258819 -0.000000
vn 0.965926 0.258819 -0.000000
vn 0.965926 0.258819 -0.000000
vn 0.707107 0.707106 -0.000000
vn 0.707107 0.707106 -0.000000
vn 0.707107 0.707106 -0.000000
vn 0.707107 0.707106 -0.000000
vn 0.258820 0.965926 0.000000
vn 0.258820 0.965926 0.000000
vn 0.258820 0.965926 0.000000
vn 0.258820 0.965926 0.000000
vn -0.258820 0.965926 -0.000000
vn -0.258820 0.965926 -0.000000
vn -0.258820 0.965926 -0.000000
vn -0.258820 0.965926 -0.000000
vn -0.707107 0.707107 -0.000000
vn -0.707107 0.707107 -0.000000
vn -0.707107 0.707107 -0.000000
vn -0.707107 0.707107 -0.000000
vn -0.965926 0.258819 -0.000000
vn -0.965926 0.258819 -0.000000
vn -0.965926 0.258819 -0.000000
vn -0.965926 0.258819 -0.000000
vn -0.965926 -0.258819 0.000000
vn -0.965926 -0.258819 0.000000
vn -0.965926 -0.258819 0.000000
vn -0.965926 -0.258819 0.000000
vn -0.707107 -0.707106 -0.000000
vn -0.707107 -0.707107 -0.000000
vn -0.707107 -0.707107 -0.000000
vn -0.707107 -0.707106 -0.000000
vn -0.258819 -0.965926 -0.000001
vn -0.258819 -0.965926 -0.000001
vn -0.258819 -0.965926 -0.000001
vn -0.258819 -0.965926 -0.000001
vn 0.258820 -0.965926 -0.000000
vn 0.258820 -0.965926 -0.000000
vn 0.258820 -0.965926 -0.000000
vn 0.258820 -0.965926 -0.000000
vn 0.707094 -0.707120 0.000000
vn 0.707106 -0.707107 0.000000
vn 0.707106 -0.707107 0.000000
vn 0.707094 -0.707120 0.000000
vn 0.965926 -0.258819 0.000000
vn 0.965926 -0.258819 0.000000
vn 0.965926 -0.258819 0.000000
vn 0.965926 -0.258819 0.000000
vn 0.000000 -0.000000 -1.000000
vn 0.000000 -0.000000 -1.000000
vn 0.000000 -0.000000 -1.000000
vn 0.000000 -0.000000 -1.000000
vn 0.000000 -0.000000 -1.000000
vn 0.000000 -0.000000 -1.000000
vn 0.000000 0.000000 -1.000000
vn 0.000000 0.000000 -1.000000
vn 0.000000 0.000000 -1.000000
vn 0.000000 0.000000 -1.000000
vn 0.000000 -0.000000 -1.000000
vn 0.000000 -0.000000 -1.000000
vn 0.000000 -0.000000 -1.000000
vn 0.000000 -0.000000 -1.000000
vn 0.000000 0.000000 -1.000000
vn 0.000000 0.000000 -1.000000
vn 0.000000 -0.000000 -1.000000
vn 0.000000 0.000000 -1.000000
vn 0.000000 -0.000000 -1.000000
vn 0.000000 -0.000000 -1.000000
vn 0.000000 -0.000000 -1.000000
vn 0.000000 -0.000000 -1.000000
vn 0.000000 -0.000000 -1.000000
vn 0.000000 -0.000000 -1.000000
vn 0.000000 -0.000000 -1.000000
vn 0.000000 -0.000000 -1.000000
vn 0.000000 -0.000000 -1.000000
vn 0.000000 -0.000000 1.000000
vn 0.000000 -0.000000 1.000000
vn 0.000000 -0.000000 1.000000
vn 0.000000 -0.000000 1.000000
vn -0.707097 -0.707117 0.000000
vn -0.707097 -0.707117 0.000000
vn 0.707107 -0.707107 0.000000
vn 0.707107 -0.707107 0.000000
vn 0.000000 0.000000 -1.000000
vn 0.000000 1.000000 -0.000000
vn 0.000000 1.000000 -0.000000
vn 0.000000 1.000000 -0.000000
vn 0.000000 1.000000 -0.000000
vn 0.000000 1.000000 -0.000000
vn 0.000000 1.000000 -0.000000
vn 0.000000 1.000000 -0.000000
vn 0.000000 1.000000 -0.000000
vn -0.943063 -0.332614 0.000000
vn -0.943063 -0.332614 0.000000
vn -0.943063 -0.332614 0.000000
vn -0.943063 -0.332614 0.000000
vn 0.943063 -0.332614 -0.000000
vn 0.943063 -0.332614 -0.000000
vn 0.943063 -0.332614 -0.000000
vn 0.943063 -0.332614 -0.000000
vn 0.943063 -0.332614 -0.000000
vn 0.943063 -0.332614 -0.000000
vn 0.943063 -0.332614 -0.000000
vn 0.943063 -0.332614 -0.000000
vn 0.943063 -0.332614 -0.000000
vn 0.943063 -0.332614 -0.000000
vn 0.943063 -0.332614 0.000000
vn 0.943063 -0.332614 0.000000
s off
g pPipe2 group1
usemtl lambert4SG
f 2/2/1 1/1/2 12/13/3 13/14/4
f 3/3/5 2/2/6 13/14/7 14/15/8
f 4/4/9 3/3/10 14/15/11 15/16/12
f 5/5/13 4/4/14 15/16/15 16/17/16
f 6/6/17 5/5/18 16/17/19 17/18/20
f 7/7/21 6/6/22 17/18/23 18/19/24
f 8/8/25 7/7/26 18/19/27 19/20/28
f 9/9/29 8/8/30 19/20/31 20/21/32
f 11/11/33 10/10/34 21/22/35 22/23/36
f 1/12/37 11/11/38 22/23/39 12/24/40
s 1
f 13/14/41 12/13/42 23/25/43 24/26/44
f 14/15/45 13/14/41 24/26/44 25/27/46
f 15/16/47 14/15/45 25/27/46 26/28/48
f 16/17/49 15/16/47 26/28/48 27/29/50
f 17/18/51 16/17/49 27/29/50 28/30/52
f 18/19/53 17/18/51 28/30/52 29/31/54
f 19/20/55 18/19/53 29/31/54 30/32/56
f 20/21/57 19/20/55 30/32/56 47/63/58 51/67/59
f 22/23/60 21/22/61 53/69/62 48/64/63 34/36/64
f 12/24/42 22/23/60 34/36/64 23/37/43
s off
f 24/26/65 23/25/66 35/38/67 36/39/68
f 25/27/69 24/26/70 36/39/71 37/40/72
f 26/28/73 25/27/74 37/40/75 38/41/76
f 27/29/77 26/28/78 38/41/79 39/42/80
f 28/30/81 27/29/82 39/42/83 40/43/84
f 29/31/85 28/30/86 40/43/87 41/44/88
f 30/32/89 29/31/90 41/44/91 42/45/92
s 3
f 31/33/93 47/63/94 49/65/95 43/46/96
s off
f 32/34/97 31/33/98 43/46/99 44/47/100
f 33/35/101 32/34/102 44/47/103 45/48/104
s 4
f 34/36/105 48/64/106 50/66/107 46/49/108
s off
f 23/37/109 34/36/110 46/49/111 35/50/112
s 5
f 36/39/113 35/38/114 1/51/115 2/52/116
f 37/40/117 36/39/113 2/52/116 3/53/118
f 38/41/119 37/40/117 3/53/118 4/54/120
f 39/42/121 38/41/119 4/54/120 5/55/122
f 40/43/123 39/42/121 5/55/122 6/56/124
f 41/44/125 40/43/123 6/56/124 7/57/126
f 42/45/127 41/44/125 7/57/126 8/58/128
f 43/46/129 49/65/130 54/70/131
f 44/47/132 43/46/129 54/70/131 55/71/133
f 45/48/134 44/47/132 55/71/133 56/60/135
f 46/49/136 50/66/137 56/60/135 10/10/138 11/61/139
f 35/50/114 46/49/136 11/61/139 1/62/115
s 1
f 51/67/59 47/63/58 31/33/140
f 52/68/141 51/67/59 31/33/140 32/34/142
f 53/69/62 52/68/141 32/34/142 33/35/143
f 48/64/63 53/69/62 33/35/143
s 3
f 49/65/95 47/63/94 30/32/144 42/45/145
s 4
f 50/66/107 48/64/106 33/35/146 45/48/147
s 5
f 54/70/131 49/65/130 42/45/127 8/58/128 9/59/148
f 56/60/135 50/66/137 45/48/134
s off
f 52/68/149 53/69/150 56/60/151 55/71/152
f 51/67/153 52/68/154 55/71/155 54/70/156
f 53/69/157 21/22/158 10/10/159 56/60/160
s 6
f 58/73/161 20/21/162 51/67/163 57/72/164
f 58/73/161 57/72/164 59/74/165 60/75/166
f 60/75/166 59/74/165 61/76/167 62/77/168
f 62/77/168 61/76/167 63/78/169 64/79/170
f 64/79/170 63/78/169 54/70/171 9/59/172
g default
v -4.000000 0.000000 -0.193559
v 4.000000 0.000000 -0.193559
v -4.000000 8.000000 -0.193559
v -3.200000 8.000000 -0.193559
v -2.400000 8.000000 -0.193559
v -1.600000 8.000000 -0.193559
v -0.800000 8.000000 -0.193559
v 0.000000 8.000000 -0.193559
v 0.800000 8.000000 -0.193559
v 1.600000 8.000000 -0.193559
v 2.400000 8.000000 -0.193559
v 3.200000 8.000000 -0.193559
v 4.000000 8.000000 -0.193559
v -4.000000 0.000000 0.000000
v 4.000000 0.000000 0.000000
v -4.000000 8.000000 -0.000000
v 4.000000 8.000000 -0.000000
v -4.000000 0.000000 0.193559
v 4.000000 0.000000 0.193559
v -3.200000 8.000000 0.193559
v -4.000000 8.000000 0.193559
v -2.400000 8.000000 0.193559
v -1.600000 8.000000 0.193559
v -0.800000 8.000000 0.193559
v 0.000000 8.000000 0.193559
v 0.800000 8.000000 0.193559
v 1.600000 8.000000 0.193559
v 2.400000 8.000000 0.193559
v 3.200000 8.000000 0.193559
v 4.000000 8.000000 0.193559
v -4.000000 8.000000 -0.193559
v -3.200000 8.000000 -0.193559
v -4.000000 8.000000 -0.000000
v -2.400000 8.000000 -0.193559
v -1.600000 8.000000 -0.193559
v -0.800000 8.000000 -0.193559
v 0.000000 8.000000 -0.193559
v 0.800000 8.000000 -0.193559
v 1.600000 8.000000 -0.193559
v 2.400000 8.000000 -0.193559
v 3.200000 8.000000 -0.193559
v 4.000000 8.000000 -0.193559
v 4.000000 8.000000 -0.000000
v -4.000000 8.000000 0.193559
v -3.200000 8.000000 0.193559
v -2.400000 8.000000 0.193559
v -1.600000 8.000000 0.193559
v -0.800000 8.000000 0.193559
v 0.000000 8.000000 0.193559
v 0.800000 8.000000 0.193559
v 1.600000 8.000000 0.193559
v 2.400000 8.000000 0.193559
v 3.200000 8.000000 0.193559
v 4.000000 8.000000 0.193559
v 4.000000 16.000000 -0.193532
v 4.000000 16.000000 0.000010
v -4.000000 16.000000 -0.193532
v -4.000000 16.000000 0.000010
v 4.000000 16.000000 0.193552
v -4.000000 16.000000 0.193552
v 4.000000 24.000000 -0.193532
v 4.000000 24.000000 0.000010
v -4.000000 24.000000 -0.193532
v -4.000000 24.000000 0.000010
v 4.000000 24.000000 0.193552
v -4.000000 24.000000 0.193552
vt 0.000000 0.000000
vt 1.000000 0.000000
vt 0.000000 1.000000
vt 0.100000 1.000000
vt 0.200000 1.000000
vt 0.300000 1.000000
vt 0.400000 1.000000
vt 0.500000 1.000000
vt 0.600000 1.000000
vt 0.700000 1.000000
vt 0.800000 1.000000
vt 0.900000 1.000000
vt 1.000000 1.000000
vt 0.000000 0.000000
vt 1.000000 0.000000
vt 0.100000 1.000000
vt 0.000000 1.000000
vt 0.200000 1.000000
vt 0.300000 1.000000
vt 0.400000 1.000000
vt 0.500000 1.000000
vt 0.600000 1.000000
vt 0.700000 1.000000
vt 0.800000 1.000000
vt 0.900000 1.000000
vt 1.000000 1.000000
vt 0.000000 0.000000
vt 1.000000 0.000000
vt 0.000000 1.000000
vt 1.000000 1.000000
vt 0.000000 0.000000
vt 1.000000 0.000000
vt 0.100000 1.000000
vt 0.000000 1.000000
vt 0.200000 1.000000
vt 0.300000 1.000000
vt 0.400000 1.000000
vt 0.500000 1.000000
vt 0.600000 1.000000
vt 0.700000 1.000000
vt 0.800000 1.000000
vt 0.900000 1.000000
vt 1.000000 1.000000
vt 0.100000 1.000000
vt 0.000000 1.000000
vt 0.000000 1.000000
vt 0.200000 1.000000
vt 0.300000 1.000000
vt 0.400000 1.000000
vt 0.500000 1.000000
vt 0.600000 1.000000
vt 0.700000 1.000000
vt 0.800000 1.000000
vt 0.900000 1.000000
vt 1.000000 1.000000
vt 1.000000 1.000000
vt 0.000000 1.000000
vt 0.100000 1.000000
vt 0.200000 1.000000
vt 0.300000 1.000000
vt 0.400000 1.000000
vt 0.500000 1.000000
vt 0.600000 1.000000
vt 0.700000 1.000000
vt 0.800000 1.000000
vt 0.900000 1.000000
vt 1.000000 1.000000
vt 1.000000 1.000000
vt 1.000000 1.000000
vt 0.000000 1.000000
vt 0.000000 1.000000
vt 1.000000 1.000000
vt 0.000000 1.000000
vt 1.000000 1.000000
vt 1.000000 0.000000
vt 0.900000 0.000000
vt 0.800000 0.000000
vt 0.700000 0.000000
vt 0.600000 0.000000
vt 0.500000 0.000000
vt 0.400000 0.000000
vt 0.300000 0.000000
vt 0.200000 0.000000
vt 0.100000 0.000000
vt 0.000000 0.000000
vt 0.000000 1.000000
vt 0.000000 1.000000
vt 0.000000 0.000000
vt 0.100000 0.000000
vt 0.200000 0.000000
vt 0.300000 0.000000
vt 0.400000 0.000000
vt 0.500000 0.000000
vt 0.600000 0.000000
vt 0.700000 0.000000
vt 0.800000 0.000000
vt 0.900000 0.000000
vt 1.000000 0.000000
vt 1.000000 1.000000
vt 1.000000 1.000000
vt 1.000000 1.000000
vt 0.000000 1.000000
vt 0.000000 1.000000
vt 1.000000 1.000000
vt 0.000000 1.000000
vt 0.000000 0.000000
vt 1.000000 0.000000
vt 1.000000 1.000000
vt 0.000000 1.000000
vt 0.000000 0.000000
vt 1.000000 0.000000
vt 1.000000 1.000000
vt 0.000000 1.000000
vn 0.000000 -0.000000 1.000000
vn 0.000000 -0.000000 1.000000
vn 0.000000 -0.000000 1.000000
vn 0.000000 -0.000000 1.000000
vn 0.000000 -0.000000 1.000000
vn 0.000000 -0.000000 1.000000
vn 0.000000 -0.000000 1.000000
vn 0.000000 -0.000000 1.000000
vn 0.000000 -0.000000 1.000000
vn 0.000000 -0.000000 1.000000
vn 0.000000 -0.000000 1.000000
vn 0.000000 -0.000000 1.000000
vn 0.000000 -0.000000 1.000000
vn 0.000000 -0.000000 -1.000000
vn 0.000000 -0.000000 -1.000000
vn 0.000000 -0.000000 -1.000000
vn 0.000000 -0.000000 -1.000000
vn 0.000000 -0.000000 -1.000000
vn 0.000000 -0.000000 -1.000000
vn 0.000000 -0.000000 -1.000000
vn 0.000000 -0.000000 -1.000000
vn 0.000000 -0.000000 -1.000000
vn 0.000000 -0.000000 -1.000000
vn 0.000000 -0.000000 -1.000000
vn 0.000000 -0.000000 -1.000000
vn 0.000000 -0.000000 -1.000000
vn 0.000000 -1.000000 0.000000
vn 0.000000 -1.000000 0.000000
vn 0.000000 -1.000000 0.000000
vn 0.000000 -1.000000 0.000000
vn 1.000000 0.000000 0.000000
vn 1.000000 0.000000 0.000000
vn 1.000000 0.000000 0.000000
vn 1.000000 0.000000 0.000000
vn -1.000000 0.000000 0.000000
vn -1.000000 0.000000 0.000000
vn -1.000000 0.000000 0.000000
vn -1.000000 0.000000 0.000000
vn 0.000000 1.000000 -0.000000
vn 0.000000 1.000000 -0.000000
vn 0.000000 1.000000 -0.000000
vn 0.000000 1.000000 -0.000000
vn 0.000000 -1.000000 0.000000
vn 0.000000 -1.000000 0.000000
vn 1.000000 0.000000 0.000000
vn 1.000000 0.000000 0.000000
vn -1.000000 0.000000 0.000000
vn -1.000000 0.000000 0.000000
vn 0.000000 1.000000 -0.000000
vn 0.000000 1.000000 -0.000000
vn 0.000000 0.000000 0.000000
vn 0.000000 0.000000 0.000000
vn 0.000000 0.000000 0.000000
vn 0.000000 0.000000 0.000000
vn 0.000000 0.000000 0.000000
vn 0.000000 0.000000 0.000000
vn 0.000000 0.000000 0.000000
vn 0.000000 0.000000 0.000000
vn 0.000000 0.000000 0.000000
vn 0.000000 0.000000 0.000000
vn 0.000000 0.000000 0.000000
vn 0.000000 0.000000 0.000000
vn 0.000000 0.000000 0.000000
vn 0.000000 0.000000 0.000000
vn 0.000000 0.000000 0.000000
vn 0.000000 0.000000 0.000000
vn 0.000000 0.000000 0.000000
vn 0.000000 0.000000 0.000000
vn 0.000000 0.000000 0.000000
vn 0.000000 0.000000 0.000000
vn 0.000000 0.000000 0.000000
vn 0.000000 0.000000 0.000000
vn 0.000000 0.000000 0.000000
vn 0.000000 0.000000 0.000000
vn 0.000000 0.000000 0.000000
vn 0.000000 0.000000 0.000000
vn 0.000000 0.000000 0.000000
vn 0.000000 0.000000 0.000000
vn 0.000000 0.000000 0.000000
vn 0.000000 0.000000 0.000000
vn 0.000000 0.000000 0.000000
vn 0.000000 0.000000 0.000000
vn 0.000000 0.000000 0.000000
vn 0.000000 0.000000 0.000000
vn 0.000000 0.000000 0.000000
vn 0.000000 0.000000 0.000000
vn 0.000000 0.000000 0.000000
vn 0.000000 0.000000 0.000000
vn 0.000000 0.000000 0.000000
vn 0.000000 0.000000 0.000000
vn 0.000000 0.000000 0.000000
vn 0.000000 0.000000 0.000000
vn 0.000000 0.000000 0.000000
vn 0.000000 0.000000 0.000000
vn 0.000000 0.000000 0.000000
vn 0.000000 0.000000 0.000000
vn 0.000000 0.000000 0.000000
vn 0.000000 0.000000 0.000000
vn 0.000000 0.000000 0.000000
vn 0.000000 0.000000 0.000000
vn 0.000000 0.000000 0.000000
vn 0.000000 0.000000 0.000000
vn 0.000000 0.000000 0.000000
vn 0.000000 0.000000 0.000000
vn 0.000000 0.000000 0.000000
vn 0.000000 0.000000 0.000000
vn 0.000000 0.000000 0.000000
vn 0.000000 0.000000 0.000000
vn 0.000000 0.000000 0.000000
vn 0.000000 0.000000 0.000000
vn 0.000000 0.000000 0.000000
vn 0.000000 0.000000 0.000000
vn 0.000000 0.000000 0.000000
vn 0.000000 0.000000 0.000000
vn 0.000000 0.000000 0.000000
vn 0.000000 0.000000 0.000000
vn 0.000000 0.000000 0.000000
vn 0.000000 0.000000 0.000000
vn 0.000000 0.000000 0.000000
vn 0.000000 0.000000 0.000000
vn 0.000000 0.000000 0.000000
vn 0.000000 0.000000 0.000000
vn 0.000000 0.000000 0.000000
vn 0.000000 0.000000 0.000000
vn 0.000000 0.000000 0.000000
vn 0.000000 0.000000 0.000000
vn 0.000000 0.000000 0.000000
vn 0.000000 0.000000 0.000000
vn 0.000000 0.000000 0.000000
vn 0.000000 0.000000 0.000000
vn 0.000000 0.000000 0.000000
vn 0.000000 0.000000 0.000000
vn 0.000000 0.000000 0.000000
vn 0.000000 0.000000 0.000000
vn 0.000000 0.000000 0.000000
vn 0.000000 0.000000 0.000000
vn 0.000000 0.000000 0.000000
vn 0.000000 0.000000 0.000000
vn 0.000000 0.000000 0.000000
vn 0.000000 0.000000 0.000000
vn 0.000000 0.000000 0.000000
vn 0.000000 0.000000 0.000000
vn 0.000000 0.000000 0.000000
vn 0.000000 0.000000 0.000000
vn 0.000000 0.000000 0.000000
vn 0.000000 0.000000 0.000000
vn 1.000000 0.000000 0.000000
vn 1.000000 0.000000 0.000000
vn 1.000000 0.000000 0.000000
vn 1.000000 0.000000 0.000000
vn 0.000000 0.000002 -1.000000
vn 0.000000 0.000003 -1.000000
vn 0.000000 0.000003 -1.000000
vn 0.000000 0.000003 -1.000000
vn 0.000000 0.000003 -1.000000
vn 0.000000 0.000003 -1.000000
vn 0.000000 0.000003 -1.000000
vn 0.000000 0.000003 -1.000000
vn 0.000000 0.000003 -1.000000
vn 0.000000 0.000003 -1.000000
vn 0.000000 0.000003 -1.000000
vn 0.000000 0.000003 -1.000000
vn 0.000000 0.000002 -1.000000
vn -1.000000 0.000000 0.000000
vn -1.000000 0.000000 0.000000
vn -1.000000 0.000000 0.000000
vn -1.000000 0.000000 0.000000
vn 1.000000 0.000000 0.000000
vn 1.000000 0.000000 0.000000
vn -1.000000 0.000000 0.000000
vn -1.000000 0.000000 0.000000
vn 0.000000 0.000000 1.000000
vn 0.000000 0.000001 1.000000
vn 0.000000 0.000001 1.000000
vn 0.000000 0.000001 1.000000
vn 0.000000 0.000001 1.000000
vn 0.000000 0.000001 1.000000
vn 0.000000 0.000001 1.000000
vn 0.000000 0.000001 1.000000
vn 0.000000 0.000001 1.000000
vn 0.000000 0.000001 1.000000
vn 0.000000 0.000001 1.000000
vn 0.000000 0.000001 1.000000
vn 0.000000 0.000000 1.000000
vn 1.000000 0.000000 0.000000
vn 1.000000 0.000000 0.000000
vn 0.000000 -0.000000 -1.000000
vn 0.000000 -0.000000 -1.000000
vn -1.000000 0.000000 0.000000
vn -1.000000 0.000000 0.000000
vn 1.000000 0.000000 0.000000
vn -1.000000 0.000000 0.000000
vn 0.000000 0.000000 1.000000
vn 0.000000 0.000000 1.000000
s off
g group1 pPlane3
usemtl lambert5SG
f 93/121/173 92/120/174 91/119/175 90/118/176 89/117/177 88/116/178 87/115/179 86/114/180 84/112/181 85/113/182 82/110/183 83/111/184 94/122/185
f 76/104/186 77/105/187 66/94/188 65/93/189 67/96/190 68/95/191 69/97/192 70/98/193 71/99/194 72/100/195 73/101/196 74/102/197 75/103/198
s 1
usemtl lambert3SG
f 78/106/199 65/80/200 66/81/201 79/107/202
s 2
f 79/107/203 66/81/204 77/92/205 81/109/206
s 3
f 80/108/207 67/82/208 65/80/209 78/106/210
s 4
f 126/179/211 125/180/212 127/181/213 128/182/214
s 1
f 82/110/215 78/106/199 79/107/202 83/111/216
s 2
f 83/111/217 79/107/203 81/109/206 94/122/218
s 3
f 82/110/219 85/113/220 80/108/207 78/106/210
s 4
f 129/183/221 126/179/211 128/182/214 130/184/222
s off
f 68/83/223 67/82/224 95/124/225 96/123/226
f 67/82/227 80/108/228 97/125/229 95/124/230
f 69/84/231 68/83/232 96/123/233 98/126/234
f 70/85/235 69/84/236 98/126/237 99/127/238
f 71/86/239 70/85/240 99/127/241 100/128/242
f 72/87/243 71/86/244 100/128/245 101/129/246
f 73/88/247 72/87/248 101/129/249 102/130/250
f 74/89/251 73/88/252 102/130/253 103/131/254
f 75/90/255 74/89/256 103/131/257 104/132/258
f 76/91/259 75/90/260 104/132/261 105/133/262
f 77/92/263 76/91/264 105/133/265 106/134/266
f 81/109/267 77/92/268 106/134/269 107/135/270
f 80/108/271 85/113/272 108/136/273 97/125/274
f 85/113/275 84/112/276 109/137/277 108/136/278
f 84/112/279 86/114/280 110/138/281 109/137/282
f 86/114/283 87/115/284 111/139/285 110/138/286
f 87/115/287 88/116/288 112/140/289 111/139/290
f 88/116/291 89/117/292 113/141/293 112/140/294
f 89/117/295 90/118/296 114/142/297 113/141/298
f 90/118/299 91/119/300 115/143/301 114/142/302
f 91/119/303 92/120/304 116/144/305 115/143/306
f 92/120/307 93/121/308 117/145/309 116/144/310
f 93/121/311 94/122/312 118/146/313 117/145/314
f 94/122/315 81/109/316 107/135/317 118/146/318
s 5
f 107/135/319 106/134/320 119/148/321 120/147/322
s 6
usemtl lambert5SG
f 119/153/323 106/154/324 105/155/325 104/156/326 103/157/327 102/158/328 101/159/329 100/160/330 99/161/331 98/162/332 96/163/333 95/164/334 121/165/335
s 7
usemtl lambert3SG
f 95/124/336 97/125/337 122/150/338 121/149/339
s 5
f 118/146/340 107/135/319 120/147/322 123/151/341
s 7
f 97/125/337 108/136/342 124/152/343 122/150/338
s 8
usemtl lambert5SG
f 124/166/344 108/167/345 109/168/346 110/169/347 111/170/348 112/171/349 113/172/350 114/173/351 115/174/352 116/175/353 117/176/354 118/177/355 123/178/356
s 5
usemtl lambert3SG
f 120/147/322 119/148/321 125/180/357 126/179/358
s 6
usemtl lambert5SG
f 119/185/323 121/186/335 127/187/359 125/188/360
s 7
usemtl lambert3SG
f 121/149/339 122/150/338 128/182/361 127/181/362
s 5
f 123/151/341 120/147/322 126/179/358 129/183/363
s 7
f 122/150/338 124/152/343 130/184/364 128/182/361
s 8
usemtl lambert5SG
f 124/189/344 123/190/356 129/191/365 130/192/366
